<svg xmlns="http://www.w3.org/2000/svg" xmlns:xlink="http://www.w3.org/1999/xlink" version="1.1" x="0px" y="0px" viewBox="0 0 66 82.5" enable-background="new 0 0 66 66" xml:space="preserve"><g><g><g><g><path d="M1.5,21c0-2.9,2.3-5.2,5.1-5.2c1.5,0,2.9,0.7,3.8,1.7l9.7-6.7c0,0,0,0,0,0c-0.3-0.6-0.4-1.3-0.4-2      c0-2.9,2.3-5.2,5.1-5.2c2.8,0,5.1,2.4,5.1,5.2c0,0.8-0.2,1.6-0.5,2.2l7.3,5.4c1-1.3,2.5-2.2,4.3-2.2c1.8,0,3.3,0.9,4.3,2.2      l7.6-5.9c-0.3-0.7-0.5-1.5-0.5-2.3c0-2.9,2.3-5.2,5.1-5.2c2.8,0,5.1,2.3,5.1,5.2s-2.3,5.3-5.1,5.3c-1.3,0-2.5-0.5-3.4-1.3      l-8,6.2c0.1,0.4,0.1,0.7,0.1,1.1c0,2.9-2.3,5.2-5.2,5.2c-2.9,0-5.3-2.3-5.3-5.2c0-0.4,0-0.8,0.1-1.2l-7.6-5.6      c-0.9,0.9-2.1,1.4-3.5,1.4c-1.4,0-2.7-0.6-3.6-1.5l-9.8,6.7c0.2,0.5,0.3,1.1,0.3,1.8c0,2.9-2.3,5.2-5.1,5.2S1.5,23.9,1.5,21z"/><path d="M14.7,37.3V59H2.4V37.3c0-0.5,0.5-1,1-1h10.3C14.3,36.3,14.7,36.7,14.7,37.3z"/><path d="M31,26.6V59H18.8V26.6c0-0.5,0.5-1,1-1H30C30.6,25.6,31,26.1,31,26.6z"/><path d="M47.4,38v21H35.1V38c0-0.5,0.5-1,1-1h10.3C46.9,37,47.4,37.4,47.4,38z"/><path d="M63.7,26.8V59H51.4V26.8c0-0.6,0.5-1,1-1h10.3C63.2,25.8,63.7,26.3,63.7,26.8z"/></g></g></g><g><path d="M64,63H2c-0.6,0-1-0.4-1-1c0-0.6,0.4-1,1-1h62c0.6,0,1,0.4,1,1C65,62.5,64.6,63,64,63z"/></g></g><text x="0" y="81" fill="#000000" font-size="5px" font-weight="bold" font-family="'Helvetica Neue', Helvetica, Arial-Unicode, Arial, Sans-serif">Created by ProSymbols</text><text x="0" y="86" fill="#000000" font-size="5px" font-weight="bold" font-family="'Helvetica Neue', Helvetica, Arial-Unicode, Arial, Sans-serif">from the Noun Project</text></svg>