<?xml version="1.0" encoding="UTF-8"?>
<svg xmlns="http://www.w3.org/2000/svg" xmlns:xlink="http://www.w3.org/1999/xlink" width="3705" height="3705" viewBox="0 0 3705 3705">
<path fill-rule="nonzero" fill="rgb(99.609375%, 99.609375%, 99.609375%)" fill-opacity="1" d="M 0 0 L 3704.21875 0 L 3704.21875 3704.214844 C 2469.480469 3704.214844 1234.738281 3704.214844 0 3704.214844 C 0 2469.480469 0 1234.738281 0 0 Z M 0 0 "/>
<path fill-rule="nonzero" fill="rgb(0%, 0%, 0%)" fill-opacity="1" d="M 2854.808594 1841.859375 C 2846.5 1841.859375 2839.589844 1844.941406 2834.070312 1850.449219 C 2828.558594 1855.96875 2825.628906 1862.878906 2825.480469 1871.191406 C 2825.429688 1873.898438 2825.730469 1876.53125 2826.53125 1878.988281 C 2827.140625 1880.878906 2827.929688 1884 2831.589844 1889.121094 C 2836.140625 1895.46875 2842.789062 1899.191406 2850.828125 1900.261719 C 2852.289062 1900.449219 2853.710938 1900.550781 2855.101562 1900.550781 C 2859.980469 1900.550781 2864.46875 1899.371094 2868.539062 1897.171875 L 2868.589844 1897.171875 L 3031.519531 2060.089844 L 3031.519531 2178.851562 L 3031.46875 2178.859375 C 3017.488281 2180.578125 3005.601562 2186.75 2995.789062 2196.550781 C 2984.089844 2208.25 2977.910156 2222.890625 2977.578125 2240.5 C 2977.480469 2246.230469 2978.121094 2251.808594 2979.800781 2257.019531 C 2981.089844 2261.019531 2982.78125 2267.640625 2990.53125 2278.480469 C 3000.160156 2291.941406 3014.238281 2299.820312 3031.300781 2302.078125 C 3034.378906 2302.488281 3037.390625 2302.691406 3040.339844 2302.691406 C 3054.371094 2302.691406 3066.859375 2298.128906 3077.699219 2289.699219 C 3090.769531 2279.53125 3098.621094 2265.921875 3101.308594 2248.929688 C 3101.308594 2248.929688 3101.820312 2246.011719 3101.878906 2240.5 C 3101.429688 2222.890625 3095.359375 2208.25 3083.671875 2196.558594 C 3073.808594 2186.691406 3061.839844 2180.511719 3047.75 2178.820312 L 3047.710938 2178.828125 L 3047.710938 2056.738281 C 3047.710938 2054.589844 3046.859375 2052.53125 3045.339844 2051.019531 L 2880.230469 1885.921875 L 2880.191406 1885.921875 C 2882.019531 1882.730469 2883.25 1879.148438 2883.878906 1875.179688 C 2883.878906 1875.179688 2884.121094 1873.789062 2884.140625 1871.191406 C 2883.929688 1862.890625 2881.070312 1855.96875 2875.550781 1850.449219 C 2870.039062 1844.941406 2863.128906 1841.859375 2854.808594 1841.859375 Z M 2854.808594 1841.859375 "/>
<path fill-rule="nonzero" fill="rgb(0%, 0%, 0%)" fill-opacity="1" d="M 1375.730469 1808.578125 C 1358.121094 1808.578125 1343.480469 1815.089844 1331.789062 1826.78125 C 1321.699219 1836.859375 1315.710938 1849.140625 1314.050781 1863.621094 L 1005.828125 1863.609375 C 1003.648438 1863.609375 1001.558594 1864.480469 1000.011719 1866.019531 L 817.53125 2048.5 L 664.453125 2048.5 L 664.453125 2048.511719 C 663.152344 2043.46875 660.628906 2039.089844 656.886719 2035.339844 C 651.367188 2029.820312 644.457031 2026.75 636.144531 2026.75 C 627.832031 2026.75 620.921875 2029.820312 615.40625 2035.339844 C 609.886719 2040.859375 606.964844 2047.769531 606.8125 2056.078125 C 606.765625 2058.789062 607.070312 2061.421875 607.863281 2063.878906 C 608.472656 2065.769531 609.265625 2068.890625 612.925781 2074 C 617.46875 2080.359375 624.117188 2084.078125 632.164062 2085.140625 C 633.621094 2085.339844 635.042969 2085.429688 636.433594 2085.429688 C 643.054688 2085.429688 648.953125 2083.28125 654.070312 2079.300781 C 658.917969 2075.53125 662.246094 2070.75 664.0625 2064.980469 L 664.039062 2064.980469 L 820.945312 2064.980469 C 823.128906 2064.980469 825.226562 2064.109375 826.769531 2062.558594 L 1009.25 1880.089844 L 1314.179688 1880.089844 L 1314.148438 1880.089844 C 1314.511719 1882.53125 1315.058594 1884.929688 1315.808594 1887.238281 C 1317.089844 1891.25 1318.78125 1897.859375 1326.53125 1908.699219 C 1336.160156 1922.160156 1350.238281 1930.039062 1367.300781 1932.300781 C 1370.378906 1932.710938 1373.390625 1932.910156 1376.339844 1932.910156 C 1390.371094 1932.910156 1402.859375 1928.351562 1413.699219 1919.921875 C 1426.769531 1909.761719 1434.621094 1896.140625 1437.308594 1879.160156 C 1437.308594 1879.160156 1437.820312 1876.230469 1437.878906 1870.71875 C 1437.429688 1853.121094 1431.359375 1838.46875 1419.671875 1826.78125 C 1407.980469 1815.089844 1393.339844 1808.578125 1375.730469 1808.578125 Z M 1375.730469 1808.578125 "/>
<path fill-rule="nonzero" fill="rgb(0%, 0%, 0%)" fill-opacity="1" d="M 636.171875 1438.800781 C 618.5625 1438.800781 603.917969 1445.308594 592.226562 1457 C 582.148438 1467.078125 576.15625 1479.359375 574.492188 1493.839844 L 479.5625 1493.839844 L 479.5625 1493.851562 C 478.265625 1488.808594 475.742188 1484.421875 471.996094 1480.679688 C 466.476562 1475.160156 459.566406 1472.089844 451.253906 1472.089844 C 442.941406 1472.089844 436.03125 1475.160156 430.515625 1480.679688 C 424.996094 1486.191406 422.074219 1493.109375 421.921875 1501.421875 C 421.875 1504.121094 422.179688 1506.75 422.972656 1509.210938 C 423.582031 1511.101562 424.375 1514.21875 428.035156 1519.339844 C 432.578125 1525.691406 439.226562 1529.410156 447.273438 1530.480469 C 448.730469 1530.671875 450.152344 1530.769531 451.542969 1530.769531 C 458.164062 1530.769531 464.0625 1528.621094 469.179688 1524.640625 C 474.027344 1520.859375 477.351562 1516.089844 479.171875 1510.320312 L 479.152344 1510.320312 L 574.59375 1510.320312 C 574.957031 1512.761719 575.5 1515.148438 576.246094 1517.460938 C 577.535156 1521.46875 579.222656 1528.078125 586.976562 1538.921875 C 596.605469 1552.378906 610.6875 1560.261719 627.738281 1562.519531 C 630.820312 1562.929688 633.835938 1563.128906 636.78125 1563.128906 C 650.808594 1563.128906 663.308594 1558.570312 674.148438 1550.140625 C 687.214844 1539.980469 695.0625 1526.371094 697.75 1509.378906 C 697.75 1509.378906 698.265625 1506.449219 698.316406 1500.941406 C 697.875 1483.339844 691.804688 1468.691406 680.117188 1457 C 668.425781 1445.308594 653.78125 1438.800781 636.171875 1438.800781 Z M 636.171875 1438.800781 "/>
<path fill-rule="nonzero" fill="rgb(0%, 0%, 0%)" fill-opacity="1" d="M 1930.371094 917.421875 C 1922.058594 917.421875 1915.140625 920.488281 1909.628906 926.011719 C 1904.109375 931.53125 1901.191406 938.441406 1901.039062 946.75 C 1900.988281 949.460938 1901.289062 952.089844 1902.089844 954.550781 C 1902.691406 956.441406 1903.488281 959.558594 1907.148438 964.679688 C 1911.691406 971.03125 1918.339844 974.75 1926.390625 975.820312 C 1927.839844 976.011719 1929.261719 976.101562 1930.648438 976.101562 C 1937.28125 976.101562 1943.179688 973.949219 1948.289062 969.96875 C 1953.140625 966.199219 1956.46875 961.421875 1958.289062 955.648438 L 1958.320312 955.648438 L 2087.359375 955.660156 L 2087.320312 955.660156 C 2087.949219 957.589844 2089.019531 960.449219 2092.039062 964.679688 C 2096.578125 971.03125 2103.230469 974.75 2111.28125 975.820312 C 2112.730469 976.011719 2114.148438 976.101562 2115.539062 976.101562 C 2122.160156 976.101562 2128.058594 973.949219 2133.179688 969.96875 C 2139.351562 965.179688 2143.050781 958.75 2144.320312 950.730469 C 2144.320312 950.730469 2144.558594 949.351562 2144.589844 946.75 C 2144.378906 938.441406 2141.519531 931.53125 2136 926.011719 C 2130.480469 920.488281 2123.570312 917.421875 2115.261719 917.421875 C 2106.949219 917.421875 2100.039062 920.488281 2094.519531 926.011719 C 2090.769531 929.761719 2088.21875 934.140625 2086.921875 939.179688 L 1958.679688 939.179688 C 1957.378906 934.140625 1954.851562 929.75 1951.109375 926.011719 C 1945.589844 920.488281 1938.679688 917.421875 1930.371094 917.421875 Z M 1930.371094 917.421875 "/>
<path fill-rule="nonzero" fill="rgb(0%, 0%, 0%)" fill-opacity="1" d="M 2669.921875 2211.640625 C 2661.609375 2211.640625 2654.699219 2214.710938 2649.179688 2220.230469 C 2643.660156 2225.75 2640.75 2232.660156 2640.589844 2240.96875 C 2640.539062 2243.679688 2640.851562 2246.308594 2641.640625 2248.769531 C 2642.25 2250.660156 2643.039062 2253.78125 2646.699219 2258.890625 C 2651.25 2265.25 2657.890625 2268.96875 2665.949219 2270.03125 C 2667.398438 2270.230469 2668.820312 2270.320312 2670.210938 2270.320312 C 2676.828125 2270.320312 2682.730469 2268.171875 2687.851562 2264.191406 C 2692.738281 2260.390625 2696.078125 2255.558594 2697.890625 2249.730469 L 2851.371094 2249.730469 L 3031.519531 2429.871094 L 3031.519531 2608.050781 L 2893.28125 2746.28125 L 2893.28125 2746.285156 C 2882.601562 2737.710938 2869.789062 2733.019531 2854.839844 2733.019531 C 2837.230469 2733.019531 2822.589844 2739.53125 2810.890625 2751.21875 C 2799.199219 2762.910156 2793.019531 2777.558594 2792.699219 2795.164062 C 2792.589844 2800.898438 2793.230469 2806.472656 2794.910156 2811.683594 C 2796.199219 2815.6875 2797.890625 2822.300781 2805.640625 2833.140625 C 2815.269531 2846.601562 2829.351562 2854.480469 2846.410156 2856.742188 C 2849.488281 2857.152344 2852.5 2857.351562 2855.449219 2857.351562 C 2869.480469 2857.351562 2881.980469 2852.792969 2892.820312 2844.359375 C 2905.878906 2834.199219 2913.730469 2820.585938 2916.421875 2803.597656 C 2916.421875 2803.597656 2916.929688 2800.671875 2916.980469 2795.164062 C 2916.621094 2780.765625 2912.5 2768.34375 2904.609375 2757.898438 L 2904.558594 2757.902344 L 3045.339844 2617.128906 C 3046.851562 2615.609375 3047.710938 2613.550781 3047.710938 2611.398438 L 3047.710938 2426.519531 C 3047.710938 2424.371094 3046.851562 2422.308594 3045.339844 2420.789062 L 2860.449219 2235.910156 C 2858.929688 2234.398438 2856.871094 2233.539062 2854.71875 2233.539062 L 2698.269531 2233.539062 C 2696.980469 2228.449219 2694.449219 2224.011719 2690.660156 2220.230469 C 2685.140625 2214.710938 2678.230469 2211.640625 2669.921875 2211.640625 Z M 2669.921875 2211.640625 "/>
<path fill-rule="nonzero" fill="rgb(0%, 0%, 0%)" fill-opacity="1" d="M 2115.261719 2396.53125 C 2106.949219 2396.53125 2100.039062 2399.601562 2094.519531 2405.121094 C 2089 2410.640625 2086.078125 2417.550781 2085.929688 2425.859375 C 2085.878906 2428.570312 2086.179688 2431.191406 2086.96875 2433.660156 C 2087.578125 2435.550781 2088.378906 2438.671875 2092.039062 2443.78125 C 2095.738281 2448.960938 2100.851562 2452.390625 2106.96875 2454.058594 L 2106.929688 2454.058594 L 2106.929688 3103.3125 L 2106.890625 3103.3125 C 2092.96875 3105.0625 2081.121094 3111.214844 2071.339844 3121 C 2059.648438 3132.6875 2053.460938 3147.332031 2053.140625 3164.941406 C 2053.039062 3170.675781 2053.679688 3176.25 2055.359375 3181.460938 C 2056.648438 3185.464844 2058.339844 3192.078125 2066.089844 3202.917969 C 2075.71875 3216.378906 2089.800781 3224.257812 2106.851562 3226.519531 C 2109.929688 3226.929688 2112.949219 3227.128906 2115.890625 3227.128906 C 2129.921875 3227.128906 2142.421875 3222.570312 2153.261719 3214.136719 C 2166.320312 3203.976562 2174.171875 3190.363281 2176.859375 3173.375 C 2176.859375 3173.375 2177.378906 3170.449219 2177.429688 3164.941406 C 2176.980469 3147.335938 2170.921875 3132.6875 2159.230469 3121 C 2149.390625 3111.164062 2137.46875 3104.992188 2123.441406 3103.28125 L 2123.410156 3103.285156 L 2123.410156 2454.140625 L 2123.371094 2454.140625 C 2126.898438 2453.121094 2130.179688 2451.421875 2133.179688 2449.078125 C 2139.351562 2444.28125 2143.050781 2437.859375 2144.320312 2429.839844 C 2144.320312 2429.839844 2144.558594 2428.460938 2144.589844 2425.859375 C 2144.378906 2417.550781 2141.519531 2410.640625 2136 2405.121094 C 2130.480469 2399.601562 2123.570312 2396.53125 2115.261719 2396.53125 Z M 2115.261719 2396.53125 "/>
<path fill-rule="nonzero" fill="rgb(0%, 0%, 0%)" fill-opacity="1" d="M 1745.480469 2211.640625 C 1737.171875 2211.640625 1730.261719 2214.710938 1724.738281 2220.230469 C 1719.21875 2225.75 1716.300781 2232.660156 1716.148438 2240.96875 C 1716.101562 2243.679688 1716.398438 2246.308594 1717.191406 2248.769531 C 1717.808594 2250.660156 1718.601562 2253.78125 1722.261719 2258.890625 C 1726.808594 2265.25 1733.449219 2268.96875 1741.5 2270.03125 C 1742.949219 2270.230469 1744.378906 2270.320312 1745.769531 2270.320312 C 1750.601562 2270.320312 1755.050781 2269.179688 1759.089844 2267.011719 L 1759.121094 2267.011719 L 1922.039062 2429.929688 L 1922.039062 2733.535156 L 1922.011719 2733.535156 C 1908.078125 2735.285156 1896.230469 2741.441406 1886.449219 2751.222656 C 1874.761719 2762.910156 1868.570312 2777.558594 1868.25 2795.164062 C 1868.140625 2800.898438 1868.789062 2806.472656 1870.46875 2811.683594 C 1871.761719 2815.6875 1873.441406 2822.300781 1881.199219 2833.140625 C 1890.828125 2846.601562 1904.910156 2854.484375 1921.96875 2856.742188 C 1925.039062 2857.152344 1928.058594 2857.351562 1931 2857.351562 C 1945.039062 2857.351562 1957.53125 2852.792969 1968.371094 2844.363281 C 1981.441406 2834.199219 1989.289062 2820.585938 1991.980469 2803.597656 C 1991.980469 2803.597656 1992.488281 2800.671875 1992.539062 2795.164062 C 1992.101562 2777.558594 1986.03125 2762.910156 1974.339844 2751.222656 C 1964.5 2741.386719 1952.578125 2735.214844 1938.550781 2733.503906 L 1938.519531 2733.507812 L 1938.519531 2426.519531 C 1938.519531 2424.328125 1937.648438 2422.230469 1936.109375 2420.691406 L 1770.96875 2255.558594 L 1770.929688 2255.558594 C 1772.71875 2252.410156 1773.921875 2248.871094 1774.539062 2244.949219 C 1774.539062 2244.949219 1774.789062 2243.570312 1774.808594 2240.96875 C 1774.601562 2232.660156 1771.738281 2225.75 1766.21875 2220.230469 C 1760.699219 2214.710938 1753.789062 2211.640625 1745.480469 2211.640625 Z M 1745.480469 2211.640625 "/>
<path fill-rule="nonzero" fill="rgb(0%, 0%, 0%)" fill-opacity="1" d="M 1190.808594 2026.75 C 1182.5 2026.75 1175.589844 2029.820312 1170.070312 2035.339844 C 1166.328125 2039.089844 1163.78125 2043.46875 1162.480469 2048.5 L 1162.480469 2048.511719 L 1005.828125 2048.5 C 1003.648438 2048.5 1001.558594 2049.371094 1000.011719 2050.910156 L 859.394531 2191.53125 C 848.734375 2183.019531 835.960938 2178.359375 821.0625 2178.359375 C 803.449219 2178.359375 788.808594 2184.871094 777.117188 2196.550781 C 765.425781 2208.25 759.238281 2222.890625 758.917969 2240.5 C 758.8125 2246.230469 759.457031 2251.808594 761.136719 2257.019531 C 762.425781 2261.019531 764.113281 2267.640625 771.863281 2278.480469 C 781.492188 2291.941406 795.574219 2299.820312 812.628906 2302.078125 C 815.710938 2302.488281 818.722656 2302.691406 821.671875 2302.691406 C 835.699219 2302.691406 848.195312 2298.128906 859.039062 2289.691406 C 872.101562 2279.53125 879.949219 2265.921875 882.640625 2248.929688 C 882.640625 2248.929688 883.15625 2246.011719 883.207031 2240.5 C 882.847656 2226.148438 878.746094 2213.761719 870.910156 2203.339844 L 870.886719 2203.339844 L 1009.25 2064.980469 L 1162.910156 2064.980469 L 1162.878906 2064.980469 C 1163.5 2066.910156 1164.570312 2069.78125 1167.589844 2074 C 1172.140625 2080.359375 1178.789062 2084.078125 1186.828125 2085.140625 C 1188.289062 2085.339844 1189.710938 2085.429688 1191.101562 2085.429688 C 1197.71875 2085.429688 1203.621094 2083.28125 1208.738281 2079.300781 C 1214.898438 2074.5 1218.609375 2068.078125 1219.878906 2060.058594 C 1219.878906 2060.058594 1220.121094 2058.679688 1220.140625 2056.078125 C 1219.929688 2047.769531 1217.070312 2040.859375 1211.558594 2035.339844 C 1206.039062 2029.820312 1199.128906 2026.75 1190.808594 2026.75 Z M 1190.808594 2026.75 "/>
<path fill-rule="nonzero" fill="rgb(0%, 0%, 0%)" fill-opacity="1" d="M 451.28125 1623.691406 C 433.671875 1623.691406 419.027344 1630.199219 407.339844 1641.890625 C 395.648438 1653.578125 389.460938 1668.230469 389.136719 1685.839844 C 389.03125 1691.570312 389.675781 1697.140625 391.355469 1702.359375 C 392.644531 1706.359375 394.332031 1712.96875 402.085938 1723.808594 C 411.714844 1737.269531 425.796875 1745.148438 442.851562 1747.410156 C 442.882812 1747.421875 442.914062 1747.421875 442.949219 1747.429688 L 442.925781 1747.429688 L 442.929688 2056.738281 C 442.929688 2058.921875 443.796875 2061.019531 445.339844 2062.558594 L 610.140625 2227.371094 L 610.121094 2227.371094 C 608.023438 2231.390625 606.90625 2235.921875 606.8125 2240.96875 C 606.765625 2243.679688 607.070312 2246.308594 607.863281 2248.769531 C 608.46875 2250.660156 609.265625 2253.78125 612.925781 2258.890625 C 617.46875 2265.25 624.117188 2268.96875 632.164062 2270.03125 C 633.621094 2270.230469 635.042969 2270.320312 636.433594 2270.320312 C 643.054688 2270.320312 648.953125 2268.171875 654.070312 2264.191406 C 660.234375 2259.390625 663.941406 2252.96875 665.210938 2244.949219 C 665.210938 2244.949219 665.453125 2243.570312 665.476562 2240.96875 C 665.265625 2232.660156 662.402344 2225.75 656.886719 2220.230469 C 651.367188 2214.710938 644.457031 2211.640625 636.144531 2211.640625 C 630.667969 2211.640625 625.800781 2212.96875 621.539062 2215.460938 L 459.40625 2053.320312 L 459.40625 2053.328125 L 459.402344 1747.570312 L 459.382812 1747.578125 C 470.40625 1746.238281 480.386719 1741.929688 489.257812 1735.03125 C 502.324219 1724.871094 510.171875 1711.25 512.863281 1694.269531 C 512.863281 1694.269531 513.375 1691.339844 513.429688 1685.839844 C 512.984375 1668.230469 506.917969 1653.578125 495.226562 1641.890625 C 483.535156 1630.199219 468.894531 1623.691406 451.28125 1623.691406 Z M 451.28125 1623.691406 "/>
<path fill-rule="nonzero" fill="rgb(0%, 0%, 0%)" fill-opacity="1" d="M 821.058594 1069.019531 C 803.449219 1069.019531 788.808594 1075.53125 777.117188 1087.21875 C 765.425781 1098.910156 759.238281 1113.558594 758.914062 1131.171875 C 758.808594 1136.898438 759.453125 1142.480469 761.132812 1147.691406 C 762.425781 1151.691406 764.109375 1158.300781 771.863281 1169.140625 C 781.492188 1182.609375 795.574219 1190.480469 812.628906 1192.75 C 815.707031 1193.148438 818.722656 1193.359375 821.667969 1193.359375 C 835.699219 1193.359375 848.195312 1188.800781 859.035156 1180.359375 C 871.863281 1170.390625 879.660156 1157.089844 882.484375 1140.53125 L 882.511719 1140.539062 L 1002.421875 1140.53125 L 1002.421875 1140.539062 L 1184.898438 1323.019531 C 1186.441406 1324.558594 1188.539062 1325.429688 1190.71875 1325.429688 L 1347.769531 1325.429688 C 1348.390625 1327.359375 1349.460938 1330.230469 1352.480469 1334.449219 C 1357.03125 1340.808594 1363.671875 1344.519531 1371.71875 1345.589844 C 1373.179688 1345.789062 1374.601562 1345.878906 1375.988281 1345.878906 C 1382.609375 1345.878906 1388.511719 1343.730469 1393.628906 1339.75 C 1399.789062 1334.949219 1403.5 1328.53125 1404.769531 1320.511719 C 1404.769531 1320.511719 1405.011719 1319.121094 1405.03125 1316.53125 C 1404.820312 1308.21875 1401.960938 1301.308594 1396.441406 1295.789062 C 1390.921875 1290.269531 1384.011719 1287.191406 1375.699219 1287.191406 C 1367.390625 1287.191406 1360.480469 1290.269531 1354.960938 1295.789062 C 1351.210938 1299.53125 1348.671875 1303.921875 1347.371094 1308.949219 L 1347.339844 1308.949219 L 1194.128906 1308.960938 L 1011.660156 1126.46875 C 1010.109375 1124.929688 1008.019531 1124.058594 1005.828125 1124.058594 L 882.703125 1124.058594 C 880.984375 1109.578125 875.082031 1097.300781 865.003906 1087.21875 C 853.3125 1075.53125 838.671875 1069.019531 821.058594 1069.019531 Z M 821.058594 1069.019531 "/>
<path fill-rule="nonzero" fill="rgb(0%, 0%, 0%)" fill-opacity="1" d="M 2485.058594 1993.460938 C 2467.449219 1993.460938 2452.808594 1999.980469 2441.121094 2011.671875 C 2429.429688 2023.359375 2423.238281 2038 2422.921875 2055.609375 C 2422.808594 2061.351562 2423.460938 2066.921875 2425.140625 2072.128906 C 2426.429688 2076.128906 2428.109375 2082.75 2435.859375 2093.589844 C 2445.488281 2107.050781 2459.570312 2114.929688 2476.628906 2117.191406 C 2479.710938 2117.601562 2482.71875 2117.800781 2485.671875 2117.800781 C 2499.699219 2117.800781 2512.199219 2113.238281 2523.039062 2104.808594 C 2535.898438 2094.800781 2543.699219 2081.460938 2546.511719 2064.839844 L 2546.46875 2064.839844 L 2826.789062 2064.828125 L 2826.828125 2064.839844 C 2827.449219 2066.769531 2828.488281 2069.671875 2831.589844 2074.011719 C 2836.140625 2080.359375 2842.789062 2084.078125 2850.828125 2085.148438 C 2852.289062 2085.339844 2853.710938 2085.429688 2855.101562 2085.429688 C 2861.71875 2085.429688 2867.621094 2083.28125 2872.738281 2079.300781 C 2878.898438 2074.511719 2882.609375 2068.078125 2883.878906 2060.058594 C 2883.878906 2060.058594 2884.121094 2058.679688 2884.140625 2056.078125 C 2883.929688 2047.769531 2881.070312 2040.859375 2875.558594 2035.339844 C 2870.039062 2029.820312 2863.128906 2026.75 2854.808594 2026.75 C 2846.5 2026.75 2839.589844 2029.820312 2834.070312 2035.339844 C 2830.289062 2039.121094 2827.730469 2043.558594 2826.449219 2048.640625 L 2826.398438 2048.640625 L 2546.71875 2048.648438 C 2545.019531 2034.109375 2539.121094 2021.78125 2529 2011.671875 C 2517.320312 1999.980469 2502.671875 1993.460938 2485.058594 1993.460938 Z M 2485.058594 1993.460938 "/>
<path fill-rule="nonzero" fill="rgb(0%, 0%, 0%)" fill-opacity="1" d="M 2485.039062 1102.308594 C 2476.71875 1102.308594 2469.808594 1105.378906 2464.289062 1110.898438 C 2460.550781 1114.640625 2458 1119.03125 2456.699219 1124.058594 L 2456.660156 1124.070312 L 2300.058594 1124.070312 C 2297.871094 1124.070312 2295.78125 1124.941406 2294.230469 1126.480469 L 2153.621094 1267.089844 C 2142.960938 1258.570312 2130.179688 1253.910156 2115.289062 1253.910156 C 2097.671875 1253.910156 2083.03125 1260.421875 2071.339844 1272.109375 C 2059.648438 1283.808594 2053.460938 1298.449219 2053.140625 1316.058594 C 2053.039062 1321.789062 2053.679688 1327.371094 2055.359375 1332.578125 C 2056.648438 1336.578125 2058.339844 1343.191406 2066.089844 1354.03125 C 2075.71875 1367.5 2089.800781 1375.371094 2106.851562 1377.640625 C 2109.929688 1378.039062 2112.949219 1378.25 2115.890625 1378.25 C 2129.921875 1378.25 2142.421875 1373.691406 2153.261719 1365.25 C 2166.320312 1355.089844 2174.171875 1341.480469 2176.859375 1324.488281 C 2176.859375 1324.488281 2177.378906 1321.570312 2177.429688 1316.058594 C 2177.070312 1301.710938 2172.96875 1289.320312 2165.140625 1278.898438 L 2165.101562 1278.910156 L 2303.46875 1140.539062 L 2303.46875 1140.550781 L 2457.058594 1140.539062 L 2457.101562 1140.539062 C 2457.71875 1142.46875 2458.789062 1145.339844 2461.820312 1149.558594 C 2466.359375 1155.921875 2473.011719 1159.640625 2481.058594 1160.699219 C 2482.511719 1160.898438 2483.929688 1160.988281 2485.320312 1160.988281 C 2491.941406 1160.988281 2497.839844 1158.839844 2502.960938 1154.859375 C 2509.128906 1150.058594 2512.828125 1143.640625 2514.101562 1135.621094 C 2514.101562 1135.621094 2514.339844 1134.238281 2514.371094 1131.640625 C 2514.160156 1123.328125 2511.289062 1116.421875 2505.769531 1110.898438 C 2500.261719 1105.378906 2493.351562 1102.308594 2485.039062 1102.308594 Z M 2485.039062 1102.308594 "/>
<path fill-rule="nonzero" fill="rgb(0%, 0%, 0%)" fill-opacity="1" d="M 2854.808594 2396.53125 C 2846.5 2396.53125 2839.589844 2399.601562 2834.070312 2405.121094 C 2828.558594 2410.640625 2825.628906 2417.550781 2825.480469 2425.859375 C 2825.429688 2428.570312 2825.730469 2431.191406 2826.53125 2433.660156 C 2826.988281 2435.089844 2827.558594 2437.238281 2829.410156 2440.429688 L 2829.371094 2440.429688 L 2665.039062 2604.75 L 2352.230469 2761.152344 C 2349.929688 2757.632812 2347.21875 2754.324219 2344.121094 2751.222656 C 2332.429688 2739.53125 2317.789062 2733.019531 2300.179688 2733.019531 C 2282.558594 2733.019531 2267.921875 2739.53125 2256.230469 2751.222656 C 2244.539062 2762.910156 2238.351562 2777.554688 2238.03125 2795.164062 C 2237.921875 2800.898438 2238.570312 2806.472656 2240.25 2811.683594 C 2241.539062 2815.6875 2243.21875 2822.300781 2250.980469 2833.140625 C 2260.609375 2846.601562 2274.691406 2854.480469 2291.738281 2856.742188 C 2294.820312 2857.152344 2297.839844 2857.351562 2300.78125 2857.351562 C 2314.808594 2857.351562 2327.308594 2852.792969 2338.148438 2844.363281 C 2351.21875 2834.199219 2359.058594 2820.585938 2361.75 2803.597656 C 2361.75 2803.597656 2362.269531 2800.671875 2362.320312 2795.164062 C 2362.140625 2788.25 2361.101562 2781.792969 2359.199219 2775.792969 L 2359.160156 2775.792969 L 2673.449219 2618.640625 C 2674.230469 2618.25 2674.941406 2617.738281 2675.558594 2617.128906 L 2840.820312 2451.871094 L 2840.871094 2451.871094 C 2843.859375 2453.421875 2847.210938 2454.441406 2850.828125 2454.921875 C 2852.289062 2455.121094 2853.710938 2455.210938 2855.101562 2455.210938 C 2861.71875 2455.210938 2867.621094 2453.058594 2872.738281 2449.078125 C 2878.898438 2444.28125 2882.609375 2437.859375 2883.878906 2429.839844 C 2883.878906 2429.839844 2884.121094 2428.460938 2884.140625 2425.859375 C 2883.929688 2417.550781 2881.070312 2410.640625 2875.550781 2405.121094 C 2870.039062 2399.601562 2863.128906 2396.53125 2854.808594 2396.53125 Z M 2854.808594 2396.53125 "/>
<path fill-rule="nonzero" fill="rgb(0%, 0%, 0%)" fill-opacity="1" d="M 2669.929688 1287.199219 C 2661.609375 1287.199219 2654.699219 1290.269531 2649.179688 1295.789062 C 2643.660156 1301.308594 2640.75 1308.21875 2640.589844 1316.53125 C 2640.539062 1319.238281 2640.851562 1321.871094 2641.640625 1324.328125 C 2642.101562 1325.738281 2642.660156 1327.851562 2644.449219 1330.960938 L 2644.398438 1330.960938 L 2481.539062 1493.851562 L 2328.488281 1493.839844 L 2328.449219 1493.839844 C 2327.148438 1488.808594 2324.628906 1484.421875 2320.890625 1480.679688 C 2315.371094 1475.160156 2308.460938 1472.089844 2300.140625 1472.089844 C 2291.839844 1472.089844 2284.921875 1475.160156 2279.410156 1480.679688 C 2273.890625 1486.191406 2270.96875 1493.109375 2270.820312 1501.421875 C 2270.769531 1504.121094 2271.070312 1506.75 2271.859375 1509.210938 C 2272.46875 1511.109375 2273.269531 1514.230469 2276.929688 1519.339844 C 2281.46875 1525.691406 2288.121094 1529.410156 2296.171875 1530.480469 C 2297.621094 1530.679688 2299.039062 1530.769531 2300.429688 1530.769531 C 2307.058594 1530.769531 2312.949219 1528.621094 2318.070312 1524.640625 C 2322.921875 1520.871094 2326.25 1516.089844 2328.058594 1510.320312 L 2484.949219 1510.320312 C 2487.128906 1510.320312 2489.230469 1509.449219 2490.769531 1507.910156 L 2656.070312 1342.601562 L 2656.109375 1342.609375 C 2659.070312 1344.121094 2662.371094 1345.121094 2665.949219 1345.589844 C 2667.398438 1345.789062 2668.820312 1345.878906 2670.210938 1345.878906 C 2676.828125 1345.878906 2682.730469 1343.730469 2687.851562 1339.75 C 2694.019531 1334.949219 2697.71875 1328.53125 2698.988281 1320.511719 C 2698.988281 1320.511719 2699.230469 1319.128906 2699.25 1316.53125 C 2699.050781 1308.21875 2696.179688 1301.308594 2690.660156 1295.789062 C 2685.140625 1290.269531 2678.230469 1287.199219 2669.929688 1287.199219 Z M 2669.929688 1287.199219 "/>
<path fill-rule="nonzero" fill="rgb(0%, 0%, 0%)" fill-opacity="1" d="M 2669.949219 1069.019531 C 2652.339844 1069.019531 2637.699219 1075.539062 2626.011719 1087.230469 C 2614.320312 1098.910156 2608.128906 1113.558594 2607.808594 1131.171875 C 2607.699219 1136.898438 2608.351562 1142.480469 2610.019531 1147.691406 C 2611.320312 1151.691406 2613 1158.308594 2620.75 1169.140625 C 2620.839844 1169.269531 2620.929688 1169.390625 2621.019531 1169.511719 L 2620.96875 1169.511719 L 2481.53125 1308.960938 L 2328.488281 1308.949219 L 2328.449219 1308.949219 C 2327.148438 1303.921875 2324.628906 1299.539062 2320.890625 1295.789062 C 2315.371094 1290.269531 2308.460938 1287.199219 2300.140625 1287.199219 C 2291.839844 1287.199219 2284.921875 1290.269531 2279.410156 1295.789062 C 2273.890625 1301.308594 2270.96875 1308.21875 2270.820312 1316.53125 C 2270.769531 1319.238281 2271.070312 1321.871094 2271.859375 1324.328125 C 2272.46875 1326.210938 2273.269531 1329.339844 2276.929688 1334.449219 C 2281.46875 1340.808594 2288.121094 1344.519531 2296.171875 1345.589844 C 2297.621094 1345.789062 2299.039062 1345.878906 2300.429688 1345.878906 C 2307.058594 1345.878906 2312.949219 1343.730469 2318.070312 1339.75 C 2322.921875 1335.980469 2326.25 1331.199219 2328.058594 1325.429688 L 2484.949219 1325.429688 C 2487.128906 1325.429688 2489.230469 1324.570312 2490.769531 1323.019531 L 2632.488281 1181.300781 L 2632.53125 1181.300781 C 2640.679688 1187.460938 2650.480469 1191.289062 2661.519531 1192.75 C 2664.601562 1193.160156 2667.609375 1193.359375 2670.558594 1193.359375 C 2684.589844 1193.359375 2697.089844 1188.800781 2707.929688 1180.371094 C 2720.988281 1170.199219 2728.839844 1156.589844 2731.53125 1139.601562 C 2731.53125 1139.601562 2732.050781 1136.679688 2732.101562 1131.171875 C 2731.648438 1113.558594 2725.589844 1098.910156 2713.890625 1087.230469 C 2702.199219 1075.539062 2687.558594 1069.019531 2669.949219 1069.019531 Z M 2669.949219 1069.019531 "/>
<path fill-rule="nonzero" fill="rgb(0%, 0%, 0%)" fill-opacity="1" d="M 3039.730469 1623.691406 C 3022.121094 1623.691406 3007.480469 1630.199219 2995.789062 1641.890625 C 2985.671875 1652 2979.679688 1664.328125 2978.03125 1678.871094 L 2854.71875 1678.871094 C 2852.570312 1678.871094 2850.519531 1679.71875 2849 1681.238281 L 2666.480469 1863.75 L 2666.480469 1863.761719 L 2513.421875 1863.75 L 2513.378906 1863.761719 C 2512.089844 1858.671875 2509.558594 1854.230469 2505.769531 1850.449219 C 2500.261719 1844.941406 2493.351562 1841.859375 2485.039062 1841.859375 C 2476.71875 1841.859375 2469.808594 1844.941406 2464.289062 1850.449219 C 2458.78125 1855.96875 2455.859375 1862.878906 2455.699219 1871.191406 C 2455.648438 1873.898438 2455.960938 1876.53125 2456.75 1878.988281 C 2457.359375 1880.878906 2458.160156 1884 2461.820312 1889.121094 C 2466.359375 1895.46875 2473.011719 1899.191406 2481.058594 1900.261719 C 2482.511719 1900.449219 2483.929688 1900.550781 2485.320312 1900.550781 C 2491.949219 1900.550781 2497.839844 1898.390625 2502.960938 1894.410156 C 2507.851562 1890.609375 2511.191406 1885.78125 2513 1879.941406 L 2669.839844 1879.941406 C 2671.980469 1879.941406 2674.039062 1879.089844 2675.558594 1877.570312 L 2858.078125 1695.058594 L 2978.128906 1695.058594 C 2978.488281 1697.550781 2979.039062 1699.988281 2979.808594 1702.359375 C 2981.089844 1706.359375 2982.78125 1712.96875 2990.53125 1723.808594 C 3000.160156 1737.269531 3014.238281 1745.148438 3031.300781 1747.410156 C 3034.378906 1747.820312 3037.390625 1748.019531 3040.339844 1748.019531 C 3054.371094 1748.019531 3066.859375 1743.460938 3077.699219 1735.03125 C 3090.769531 1724.871094 3098.621094 1711.261719 3101.308594 1694.269531 C 3101.308594 1694.269531 3101.820312 1691.339844 3101.878906 1685.839844 C 3101.429688 1668.230469 3095.359375 1653.578125 3083.671875 1641.890625 C 3071.980469 1630.199219 3057.339844 1623.691406 3039.730469 1623.691406 Z M 3039.730469 1623.691406 "/>
<path fill-rule="nonzero" fill="rgb(0%, 0%, 0%)" fill-opacity="1" d="M 2854.839844 1253.910156 C 2837.230469 1253.910156 2822.589844 1260.421875 2810.890625 1272.109375 C 2799.210938 1283.808594 2793.019531 1298.449219 2792.699219 1316.058594 C 2792.589844 1321.789062 2793.230469 1327.371094 2794.910156 1332.578125 C 2796.199219 1336.578125 2797.890625 1343.191406 2805.640625 1354.039062 C 2815.269531 1367.5 2829.351562 1375.371094 2846.410156 1377.640625 C 2846.5 1377.648438 2846.589844 1377.660156 2846.671875 1377.671875 L 2846.628906 1377.671875 L 2846.628906 1498.71875 L 2666.480469 1678.871094 L 2484.949219 1678.871094 C 2482.800781 1678.871094 2480.738281 1679.71875 2479.21875 1681.238281 L 2314.769531 1845.691406 C 2310.5 1843.199219 2305.628906 1841.859375 2300.140625 1841.859375 C 2291.839844 1841.859375 2284.921875 1844.941406 2279.410156 1850.449219 C 2273.890625 1855.96875 2270.96875 1862.878906 2270.820312 1871.191406 C 2270.769531 1873.898438 2271.070312 1876.53125 2271.859375 1878.988281 C 2272.46875 1880.878906 2273.269531 1884 2276.929688 1889.121094 C 2281.46875 1895.46875 2288.121094 1899.191406 2296.171875 1900.261719 C 2297.621094 1900.449219 2299.039062 1900.550781 2300.429688 1900.550781 C 2307.058594 1900.550781 2312.949219 1898.390625 2318.070312 1894.410156 C 2324.238281 1889.621094 2327.941406 1883.191406 2329.210938 1875.179688 C 2329.210938 1875.179688 2329.449219 1873.789062 2329.480469 1871.191406 C 2329.351562 1866.050781 2328.199219 1861.441406 2326.039062 1857.359375 L 2326 1857.371094 L 2488.300781 1695.058594 L 2669.839844 1695.058594 C 2671.980469 1695.058594 2674.039062 1694.210938 2675.558594 1692.691406 L 2860.449219 1507.800781 C 2861.96875 1506.28125 2862.820312 1504.21875 2862.820312 1502.070312 L 2862.820312 1377.820312 L 2862.769531 1377.820312 C 2873.859375 1376.511719 2883.898438 1372.191406 2892.820312 1365.25 C 2905.878906 1355.089844 2913.730469 1341.480469 2916.421875 1324.488281 C 2916.421875 1324.488281 2916.929688 1321.570312 2916.980469 1316.058594 C 2916.539062 1298.449219 2910.46875 1283.808594 2898.78125 1272.109375 C 2887.089844 1260.421875 2872.449219 1253.910156 2854.839844 1253.910156 Z M 2854.839844 1253.910156 "/>
<path fill-rule="nonzero" fill="rgb(0%, 0%, 0%)" fill-opacity="1" d="M 2485.039062 2766.304688 C 2476.71875 2766.304688 2469.808594 2769.378906 2464.289062 2774.894531 C 2458.769531 2780.414062 2455.859375 2787.324219 2455.699219 2795.636719 C 2455.648438 2798.34375 2455.960938 2800.972656 2456.75 2803.433594 C 2457.359375 2805.320312 2458.160156 2808.441406 2461.820312 2813.558594 C 2466.359375 2819.914062 2473.011719 2823.632812 2481.058594 2824.699219 C 2482.511719 2824.894531 2483.929688 2824.988281 2485.320312 2824.988281 C 2491.941406 2824.988281 2497.839844 2822.835938 2502.960938 2818.855469 C 2507.808594 2815.085938 2511.128906 2810.308594 2512.949219 2804.539062 L 2512.910156 2804.542969 L 2641.949219 2804.535156 L 2641.988281 2804.539062 C 2642.609375 2806.46875 2643.679688 2809.335938 2646.699219 2813.558594 C 2651.25 2819.914062 2657.890625 2823.632812 2665.941406 2824.699219 C 2667.398438 2824.890625 2668.820312 2824.988281 2670.210938 2824.988281 C 2676.828125 2824.988281 2682.730469 2822.835938 2687.851562 2818.855469 C 2694.011719 2814.058594 2697.71875 2807.632812 2698.988281 2799.617188 C 2698.988281 2799.617188 2699.230469 2798.234375 2699.25 2795.636719 C 2699.039062 2787.328125 2696.179688 2780.414062 2690.660156 2774.894531 C 2685.140625 2769.378906 2678.230469 2766.304688 2669.921875 2766.304688 C 2661.609375 2766.304688 2654.699219 2769.378906 2649.179688 2774.894531 C 2645.441406 2778.640625 2642.890625 2783.027344 2641.589844 2788.058594 L 2641.550781 2788.0625 L 2513.339844 2788.0625 L 2513.339844 2788.066406 C 2512.039062 2783.03125 2509.519531 2778.640625 2505.769531 2774.894531 C 2500.261719 2769.378906 2493.351562 2766.304688 2485.039062 2766.304688 Z M 2485.039062 2766.304688 "/>
<path fill-rule="nonzero" fill="rgb(0%, 0%, 0%)" fill-opacity="1" d="M 2485.039062 2211.640625 C 2476.71875 2211.640625 2469.808594 2214.710938 2464.289062 2220.230469 C 2458.78125 2225.75 2455.859375 2232.660156 2455.699219 2240.96875 C 2455.648438 2243.679688 2455.960938 2246.308594 2456.75 2248.769531 C 2457.359375 2250.660156 2458.160156 2253.78125 2461.820312 2258.890625 C 2465.519531 2264.078125 2470.628906 2267.5 2476.75 2269.171875 L 2476.710938 2269.179688 L 2476.710938 2423.101562 L 2314.640625 2585.171875 L 2314.640625 2585.179688 C 2310.398438 2582.730469 2305.570312 2581.421875 2300.140625 2581.421875 C 2291.839844 2581.421875 2284.921875 2584.488281 2279.410156 2590.011719 C 2273.890625 2595.519531 2270.96875 2602.441406 2270.820312 2610.75 C 2270.769531 2613.449219 2271.070312 2616.089844 2271.859375 2618.539062 C 2272.46875 2620.429688 2273.269531 2623.550781 2276.929688 2628.671875 C 2281.46875 2635.019531 2288.121094 2638.738281 2296.160156 2639.808594 C 2297.621094 2640 2299.039062 2640.101562 2300.429688 2640.101562 C 2307.058594 2640.101562 2312.949219 2637.949219 2318.070312 2633.96875 C 2324.230469 2629.171875 2327.941406 2622.75 2329.210938 2614.730469 C 2329.210938 2614.730469 2329.449219 2613.351562 2329.480469 2610.75 C 2329.351562 2605.660156 2328.21875 2601.089844 2326.109375 2597.050781 L 2326.070312 2597.050781 L 2490.769531 2432.339844 C 2492.320312 2430.800781 2493.179688 2428.699219 2493.179688 2426.519531 L 2493.179688 2269.25 L 2493.140625 2269.25 C 2496.679688 2268.238281 2499.949219 2266.53125 2502.960938 2264.191406 C 2509.128906 2259.390625 2512.828125 2252.96875 2514.101562 2244.949219 C 2514.101562 2244.949219 2514.339844 2243.570312 2514.371094 2240.96875 C 2514.160156 2232.660156 2511.289062 2225.75 2505.769531 2220.230469 C 2500.261719 2214.710938 2493.351562 2211.640625 2485.039062 2211.640625 Z M 2485.039062 2211.640625 "/>
<path fill-rule="nonzero" fill="rgb(0%, 0%, 0%)" fill-opacity="1" d="M 1930.390625 1993.460938 C 1912.789062 1993.460938 1898.140625 1999.980469 1886.449219 2011.671875 C 1876.339844 2021.78125 1870.339844 2034.109375 1868.699219 2048.648438 L 1745.390625 2048.640625 C 1743.238281 2048.640625 1741.179688 2049.5 1739.660156 2051.019531 L 1575.210938 2215.46875 C 1570.949219 2212.980469 1566.070312 2211.640625 1560.589844 2211.640625 C 1552.28125 2211.640625 1545.371094 2214.710938 1539.851562 2220.230469 C 1534.328125 2225.75 1531.410156 2232.660156 1531.261719 2240.96875 C 1531.210938 2243.679688 1531.519531 2246.308594 1532.308594 2248.769531 C 1532.910156 2250.660156 1533.710938 2253.78125 1537.371094 2258.890625 C 1541.910156 2265.25 1548.558594 2268.96875 1556.609375 2270.03125 C 1558.058594 2270.230469 1559.488281 2270.320312 1560.878906 2270.320312 C 1567.5 2270.320312 1573.398438 2268.171875 1578.519531 2264.191406 C 1584.679688 2259.390625 1588.390625 2252.96875 1589.660156 2244.949219 C 1589.660156 2244.949219 1589.898438 2243.570312 1589.921875 2240.96875 C 1589.789062 2235.820312 1588.640625 2231.210938 1586.480469 2227.140625 L 1586.441406 2227.140625 L 1748.738281 2064.828125 L 1748.738281 2064.839844 L 1868.828125 2064.839844 L 1868.800781 2064.839844 C 1869.160156 2067.328125 1869.710938 2069.769531 1870.46875 2072.128906 C 1871.761719 2076.128906 1873.441406 2082.75 1881.199219 2093.589844 C 1890.828125 2107.050781 1904.910156 2114.929688 1921.96875 2117.191406 C 1925.039062 2117.601562 1928.058594 2117.800781 1931 2117.800781 C 1945.039062 2117.800781 1957.53125 2113.238281 1968.371094 2104.808594 C 1981.441406 2094.648438 1989.289062 2081.03125 1991.980469 2064.050781 C 1991.980469 2064.050781 1992.488281 2061.121094 1992.539062 2055.609375 C 1992.101562 2038.011719 1986.03125 2023.359375 1974.339844 2011.671875 C 1962.648438 1999.980469 1948.011719 1993.460938 1930.390625 1993.460938 Z M 1930.390625 1993.460938 "/>
<path fill-rule="nonzero" fill="rgb(0%, 0%, 0%)" fill-opacity="1" d="M 2115.289062 1623.691406 C 2097.671875 1623.691406 2083.03125 1630.199219 2071.339844 1641.890625 C 2061.230469 1652 2055.230469 1664.328125 2053.589844 1678.871094 L 2053.550781 1678.871094 L 1930.28125 1678.878906 C 1928.679688 1678.878906 1927.121094 1679.351562 1925.789062 1680.238281 L 1371.121094 2050 C 1368.871094 2051.5 1367.519531 2054.03125 1367.519531 2056.738281 L 1367.519531 2212.738281 L 1367.488281 2212.75 C 1362.71875 2214.089844 1358.550781 2216.640625 1354.960938 2220.230469 C 1349.441406 2225.75 1346.519531 2232.660156 1346.371094 2240.96875 C 1346.320312 2243.679688 1346.628906 2246.308594 1347.421875 2248.769531 C 1348.03125 2250.660156 1348.820312 2253.78125 1352.480469 2258.890625 C 1357.03125 2265.25 1363.671875 2268.96875 1371.71875 2270.03125 C 1373.179688 2270.230469 1374.601562 2270.320312 1375.988281 2270.320312 C 1382.609375 2270.320312 1388.511719 2268.171875 1393.628906 2264.191406 C 1399.789062 2259.390625 1403.5 2252.96875 1404.769531 2244.949219 C 1404.769531 2244.949219 1405.011719 2243.570312 1405.039062 2240.96875 C 1404.820312 2232.660156 1401.960938 2225.75 1396.441406 2220.230469 C 1392.808594 2216.601562 1388.578125 2214.03125 1383.738281 2212.691406 L 1383.710938 2212.691406 L 1383.710938 2061.070312 L 1932.730469 1695.070312 L 2053.648438 1695.058594 L 2053.691406 1695.070312 C 2054.050781 1697.558594 2054.601562 1699.988281 2055.359375 1702.359375 C 2056.648438 1706.359375 2058.339844 1712.96875 2066.089844 1723.808594 C 2075.71875 1737.269531 2089.800781 1745.148438 2106.851562 1747.410156 C 2109.929688 1747.820312 2112.949219 1748.019531 2115.890625 1748.019531 C 2129.921875 1748.019531 2142.421875 1743.460938 2153.261719 1735.03125 C 2166.320312 1724.871094 2174.171875 1711.261719 2176.859375 1694.269531 C 2176.859375 1694.269531 2177.378906 1691.339844 2177.429688 1685.839844 C 2176.980469 1668.230469 2170.921875 1653.578125 2159.230469 1641.890625 C 2147.539062 1630.199219 2132.890625 1623.691406 2115.289062 1623.691406 Z M 2115.289062 1623.691406 "/>
<path fill-rule="nonzero" fill="rgb(0%, 0%, 0%)" fill-opacity="1" d="M 1005.921875 2211.640625 C 997.613281 2211.640625 990.699219 2214.710938 985.183594 2220.230469 C 979.664062 2225.75 976.746094 2232.660156 976.59375 2240.96875 C 976.542969 2243.679688 976.847656 2246.308594 977.640625 2248.769531 C 978.25 2250.660156 979.042969 2253.78125 982.703125 2258.890625 C 987.25 2265.25 993.894531 2268.96875 1001.941406 2270.03125 C 1003.398438 2270.230469 1004.820312 2270.320312 1006.210938 2270.320312 C 1011.050781 2270.320312 1015.5 2269.179688 1019.539062 2267 L 1019.558594 2267.011719 L 1184.898438 2432.339844 C 1186.441406 2433.890625 1188.539062 2434.761719 1190.71875 2434.761719 L 1557.089844 2434.75 L 1695.578125 2573.25 L 1695.550781 2573.25 C 1687.75 2583.640625 1683.621094 2595.980469 1683.359375 2610.28125 C 1683.261719 2616.011719 1683.898438 2621.589844 1685.578125 2626.800781 C 1686.871094 2630.800781 1688.558594 2637.410156 1696.308594 2648.25 C 1705.941406 2661.710938 1720.019531 2669.589844 1737.070312 2671.859375 C 1740.160156 2672.261719 1743.171875 2672.460938 1746.121094 2672.460938 C 1760.140625 2672.460938 1772.640625 2667.910156 1783.480469 2659.46875 C 1796.550781 2649.308594 1804.390625 2635.699219 1807.089844 2618.710938 C 1807.089844 2618.710938 1807.601562 2615.78125 1807.648438 2610.28125 C 1807.210938 2592.671875 1801.140625 2578.019531 1789.449219 2566.328125 C 1777.761719 2554.640625 1763.121094 2548.128906 1745.511719 2548.128906 C 1730.550781 2548.128906 1717.730469 2552.828125 1707.039062 2561.410156 L 1566.328125 2420.691406 C 1564.78125 2419.140625 1562.691406 2418.28125 1560.5 2418.28125 L 1194.140625 2418.28125 L 1031.410156 2255.550781 L 1031.378906 2255.550781 C 1033.171875 2252.398438 1034.371094 2248.871094 1034.988281 2244.949219 C 1034.988281 2244.949219 1035.230469 2243.570312 1035.25 2240.96875 C 1035.050781 2232.660156 1032.179688 2225.75 1026.660156 2220.230469 C 1021.140625 2214.710938 1014.230469 2211.640625 1005.921875 2211.640625 Z M 1005.921875 2211.640625 "/>
<path fill-rule="nonzero" fill="rgb(0%, 0%, 0%)" fill-opacity="1" d="M 1005.949219 1623.691406 C 988.339844 1623.691406 973.695312 1630.199219 962.007812 1641.890625 C 951.925781 1651.96875 945.933594 1664.25 944.269531 1678.730469 L 820.945312 1678.730469 C 818.757812 1678.730469 816.664062 1679.601562 815.121094 1681.140625 L 650.636719 1845.621094 C 646.402344 1843.171875 641.574219 1841.859375 636.144531 1841.859375 C 627.832031 1841.859375 620.921875 1844.929688 615.40625 1850.449219 C 609.886719 1855.96875 606.964844 1862.878906 606.8125 1871.191406 C 606.765625 1873.898438 607.070312 1876.53125 607.863281 1878.988281 C 608.46875 1880.878906 609.265625 1884 612.925781 1889.121094 C 617.46875 1895.46875 624.117188 1899.191406 632.164062 1900.261719 C 633.617188 1900.449219 635.039062 1900.539062 636.429688 1900.539062 C 643.054688 1900.539062 648.953125 1898.390625 654.070312 1894.410156 C 660.234375 1889.621094 663.9375 1883.191406 665.210938 1875.171875 C 665.210938 1875.171875 665.453125 1873.789062 665.476562 1871.191406 C 665.347656 1866.101562 664.222656 1861.53125 662.097656 1857.480469 L 662.074219 1857.480469 L 824.355469 1695.210938 L 944.371094 1695.210938 C 944.734375 1697.648438 945.277344 1700.039062 946.023438 1702.359375 C 947.3125 1706.359375 949 1712.96875 956.753906 1723.808594 C 966.382812 1737.269531 980.464844 1745.148438 997.519531 1747.410156 C 1000.601562 1747.820312 1003.609375 1748.019531 1006.558594 1748.019531 C 1020.589844 1748.019531 1033.089844 1743.460938 1043.929688 1735.03125 C 1056.988281 1724.871094 1064.839844 1711.25 1067.53125 1694.269531 C 1067.53125 1694.269531 1068.039062 1691.339844 1068.101562 1685.828125 C 1067.648438 1668.230469 1061.589844 1653.578125 1049.890625 1641.890625 C 1038.199219 1630.199219 1023.558594 1623.691406 1005.949219 1623.691406 Z M 1005.949219 1623.691406 "/>
<path fill-rule="nonzero" fill="rgb(0%, 0%, 0%)" fill-opacity="1" d="M 1745.511719 884.128906 C 1727.890625 884.128906 1713.25 890.640625 1701.558594 902.339844 C 1691.480469 912.410156 1685.488281 924.691406 1683.828125 939.171875 L 1375.609375 939.171875 C 1373.429688 939.171875 1371.328125 940.03125 1369.789062 941.578125 L 1205.308594 1106.058594 L 1205.308594 1106.070312 C 1201.070312 1103.621094 1196.238281 1102.308594 1190.808594 1102.308594 C 1182.5 1102.308594 1175.589844 1105.378906 1170.070312 1110.898438 C 1164.558594 1116.410156 1161.628906 1123.328125 1161.480469 1131.640625 C 1161.429688 1134.339844 1161.730469 1136.980469 1162.53125 1139.429688 C 1163.140625 1141.320312 1163.929688 1144.441406 1167.589844 1149.558594 C 1172.140625 1155.910156 1178.789062 1159.628906 1186.828125 1160.699219 C 1188.289062 1160.890625 1189.710938 1160.988281 1191.101562 1160.988281 C 1197.71875 1160.988281 1203.621094 1158.839844 1208.730469 1154.859375 C 1214.898438 1150.058594 1218.609375 1143.640625 1219.878906 1135.621094 C 1219.878906 1135.621094 1220.121094 1134.238281 1220.140625 1131.640625 C 1220.019531 1126.550781 1218.890625 1121.980469 1216.769531 1117.929688 L 1216.738281 1117.929688 L 1379.019531 955.640625 L 1683.960938 955.640625 L 1683.929688 955.640625 C 1684.289062 958.089844 1684.828125 960.480469 1685.578125 962.800781 C 1686.871094 966.800781 1688.558594 973.410156 1696.308594 984.25 C 1705.941406 997.71875 1720.019531 1005.601562 1737.070312 1007.859375 C 1740.160156 1008.269531 1743.171875 1008.46875 1746.109375 1008.46875 C 1760.140625 1008.46875 1772.640625 1003.910156 1783.480469 995.480469 C 1796.550781 985.308594 1804.390625 971.699219 1807.089844 954.710938 C 1807.089844 954.710938 1807.601562 951.789062 1807.648438 946.28125 C 1807.210938 928.671875 1801.140625 914.019531 1789.449219 902.339844 C 1777.761719 890.640625 1763.121094 884.128906 1745.511719 884.128906 Z M 1745.511719 884.128906 "/>
<path fill-rule="nonzero" fill="rgb(0%, 0%, 0%)" fill-opacity="1" d="M 2485.058594 884.128906 C 2467.449219 884.128906 2452.808594 890.640625 2441.121094 902.339844 C 2431.039062 912.410156 2425.050781 924.691406 2423.378906 939.171875 L 2300.058594 939.171875 C 2297.871094 939.171875 2295.78125 940.03125 2294.230469 941.578125 L 2111.75 1124.070312 L 1958.710938 1124.058594 L 1958.679688 1124.070312 C 1957.378906 1119.03125 1954.851562 1114.640625 1951.109375 1110.898438 C 1945.589844 1105.378906 1938.679688 1102.308594 1930.371094 1102.308594 C 1922.058594 1102.308594 1915.140625 1105.378906 1909.628906 1110.898438 C 1904.109375 1116.421875 1901.191406 1123.328125 1901.039062 1131.640625 C 1900.988281 1134.351562 1901.289062 1136.980469 1902.089844 1139.441406 C 1902.691406 1141.328125 1903.488281 1144.441406 1907.148438 1149.558594 C 1911.691406 1155.921875 1918.339844 1159.640625 1926.390625 1160.699219 C 1927.839844 1160.898438 1929.269531 1160.988281 1930.648438 1160.988281 C 1937.28125 1160.988281 1943.179688 1158.839844 1948.289062 1154.859375 C 1953.140625 1151.089844 1956.46875 1146.308594 1958.289062 1140.539062 L 1958.320312 1140.539062 L 2115.171875 1140.550781 C 2117.351562 1140.550781 2119.449219 1139.679688 2120.988281 1138.128906 L 2303.46875 955.640625 L 2303.46875 955.648438 L 2423.449219 955.640625 L 2423.480469 955.648438 C 2423.851562 958.089844 2424.390625 960.480469 2425.140625 962.800781 C 2426.429688 966.808594 2428.109375 973.410156 2435.859375 984.25 C 2445.488281 997.71875 2459.578125 1005.601562 2476.628906 1007.859375 C 2479.710938 1008.269531 2482.730469 1008.46875 2485.671875 1008.46875 C 2499.699219 1008.46875 2512.199219 1003.910156 2523.039062 995.480469 C 2536.101562 985.320312 2543.949219 971.699219 2546.640625 954.710938 C 2546.640625 954.710938 2547.160156 951.789062 2547.210938 946.28125 C 2546.769531 928.679688 2540.699219 914.03125 2529.011719 902.339844 C 2517.320312 890.640625 2502.671875 884.128906 2485.058594 884.128906 Z M 2485.058594 884.128906 "/>
<path fill-rule="nonzero" fill="rgb(0%, 0%, 0%)" fill-opacity="1" d="M 636.171875 1253.910156 C 618.5625 1253.910156 603.917969 1260.421875 592.226562 1272.109375 C 580.535156 1283.808594 574.347656 1298.449219 574.027344 1316.058594 C 573.921875 1321.789062 574.566406 1327.359375 576.246094 1332.578125 C 577.535156 1336.578125 579.222656 1343.191406 586.972656 1354.03125 C 596.601562 1367.488281 610.683594 1375.371094 627.738281 1377.628906 C 630.820312 1378.039062 633.835938 1378.238281 636.78125 1378.238281 C 650.398438 1378.238281 662.570312 1373.949219 673.183594 1365.988281 L 673.207031 1365.988281 L 815.117188 1507.898438 C 816.664062 1509.449219 818.757812 1510.320312 820.945312 1510.320312 L 1187.308594 1510.308594 L 1349.699219 1672.710938 L 1349.671875 1672.710938 C 1347.578125 1676.71875 1346.460938 1681.261719 1346.371094 1686.308594 C 1346.320312 1689.011719 1346.628906 1691.640625 1347.421875 1694.101562 C 1348.03125 1695.988281 1348.820312 1699.109375 1352.480469 1704.230469 C 1357.03125 1710.578125 1363.671875 1714.300781 1371.71875 1715.371094 C 1373.179688 1715.558594 1374.601562 1715.660156 1375.988281 1715.660156 C 1382.609375 1715.660156 1388.511719 1713.5 1393.628906 1709.519531 C 1399.789062 1704.730469 1403.5 1698.308594 1404.769531 1690.28125 C 1404.769531 1690.28125 1405.011719 1688.910156 1405.03125 1686.308594 C 1404.820312 1678 1401.960938 1671.078125 1396.441406 1665.570312 C 1390.921875 1660.050781 1384.011719 1656.96875 1375.699219 1656.96875 C 1370.21875 1656.96875 1365.359375 1658.308594 1361.089844 1660.800781 L 1196.550781 1496.25 C 1195 1494.699219 1192.910156 1493.828125 1190.71875 1493.828125 L 824.355469 1493.839844 L 685.042969 1354.519531 L 685.023438 1354.519531 C 691.679688 1346.101562 695.914062 1336.078125 697.75 1324.488281 C 697.75 1324.488281 698.265625 1321.558594 698.316406 1316.058594 C 697.875 1298.449219 691.804688 1283.800781 680.113281 1272.109375 C 668.425781 1260.421875 653.78125 1253.910156 636.171875 1253.910156 Z M 636.171875 1253.910156 "/>
<path fill-rule="nonzero" fill="rgb(0%, 0%, 0%)" fill-opacity="1" d="M 1375.699219 1472.089844 C 1367.390625 1472.089844 1360.480469 1475.160156 1354.960938 1480.679688 C 1349.441406 1486.191406 1346.519531 1493.109375 1346.371094 1501.421875 C 1346.320312 1504.121094 1346.628906 1506.75 1347.421875 1509.210938 C 1348.03125 1511.101562 1348.820312 1514.21875 1352.480469 1519.339844 C 1357.03125 1525.691406 1363.671875 1529.410156 1371.71875 1530.480469 C 1373.179688 1530.671875 1374.601562 1530.769531 1375.988281 1530.769531 C 1380.878906 1530.769531 1385.371094 1529.601562 1389.441406 1527.378906 L 1389.46875 1527.378906 L 1554.78125 1692.691406 C 1556.289062 1694.210938 1558.359375 1695.070312 1560.5 1695.070312 L 1683.878906 1695.058594 L 1683.910156 1695.070312 C 1684.269531 1697.558594 1684.820312 1699.988281 1685.578125 1702.359375 C 1686.871094 1706.359375 1688.558594 1712.96875 1696.308594 1723.808594 C 1705.941406 1737.269531 1720.019531 1745.148438 1737.070312 1747.410156 C 1740.160156 1747.820312 1743.171875 1748.019531 1746.109375 1748.019531 C 1760.140625 1748.019531 1772.640625 1743.460938 1783.480469 1735.03125 C 1796.550781 1724.871094 1804.390625 1711.261719 1807.089844 1694.269531 C 1807.089844 1694.269531 1807.601562 1691.339844 1807.648438 1685.839844 C 1807.210938 1668.230469 1801.140625 1653.578125 1789.449219 1641.890625 C 1777.761719 1630.199219 1763.121094 1623.691406 1745.511719 1623.691406 C 1727.890625 1623.691406 1713.25 1630.199219 1701.558594 1641.890625 C 1691.449219 1652 1685.449219 1664.328125 1683.808594 1678.871094 L 1683.78125 1678.871094 L 1563.859375 1678.878906 L 1401.121094 1516.128906 L 1401.089844 1516.128906 C 1402.910156 1512.941406 1404.140625 1509.371094 1404.769531 1505.398438 C 1404.769531 1505.398438 1405.011719 1504.019531 1405.03125 1501.421875 C 1404.820312 1493.109375 1401.960938 1486.191406 1396.441406 1480.679688 C 1390.921875 1475.160156 1384.011719 1472.089844 1375.699219 1472.089844 Z M 1375.699219 1472.089844 "/>
<path fill-rule="nonzero" fill="rgb(0%, 0%, 0%)" fill-opacity="1" d="M 1560.621094 1253.910156 C 1543.011719 1253.910156 1528.359375 1260.421875 1516.679688 1272.109375 C 1504.980469 1283.808594 1498.789062 1298.449219 1498.46875 1316.058594 C 1498.371094 1321.789062 1499.011719 1327.359375 1500.691406 1332.578125 C 1501.980469 1336.578125 1503.671875 1343.191406 1511.421875 1354.03125 C 1521.050781 1367.5 1535.128906 1375.371094 1552.179688 1377.640625 C 1555.269531 1378.039062 1558.28125 1378.25 1561.230469 1378.25 C 1574.890625 1378.25 1587.101562 1373.921875 1597.738281 1365.910156 L 1597.769531 1365.910156 L 1739.660156 1507.800781 C 1741.179688 1509.308594 1743.238281 1510.171875 1745.390625 1510.171875 L 2111.820312 1510.171875 L 2274.21875 1672.578125 L 2274.179688 1672.578125 C 2272.050781 1676.628906 2270.910156 1681.199219 2270.820312 1686.308594 C 2270.769531 1689.011719 2271.070312 1691.640625 2271.859375 1694.101562 C 2272.46875 1695.988281 2273.269531 1699.109375 2276.929688 1704.230469 C 2281.46875 1710.578125 2288.121094 1714.300781 2296.171875 1715.371094 C 2297.621094 1715.558594 2299.039062 1715.660156 2300.429688 1715.660156 C 2307.058594 1715.660156 2312.949219 1713.5 2318.070312 1709.519531 C 2324.230469 1704.730469 2327.941406 1698.308594 2329.210938 1690.28125 C 2329.210938 1690.28125 2329.449219 1688.910156 2329.480469 1686.308594 C 2329.269531 1678 2326.398438 1671.078125 2320.890625 1665.570312 C 2315.371094 1660.050781 2308.460938 1656.96875 2300.140625 1656.96875 C 2294.609375 1656.96875 2289.699219 1658.339844 2285.410156 1660.871094 L 2120.890625 1496.351562 C 2119.378906 1494.828125 2117.320312 1493.980469 2115.171875 1493.980469 L 1748.738281 1493.980469 L 1609.410156 1354.640625 L 1609.378906 1354.640625 C 1616.089844 1346.191406 1620.351562 1336.128906 1622.191406 1324.488281 C 1622.191406 1324.488281 1622.710938 1321.570312 1622.769531 1316.058594 C 1622.320312 1298.449219 1616.25 1283.808594 1604.558594 1272.109375 C 1592.871094 1260.421875 1578.230469 1253.910156 1560.621094 1253.910156 Z M 1560.621094 1253.910156 "/>
<path fill-rule="nonzero" fill="rgb(0%, 0%, 0%)" fill-opacity="1" d="M 2115.289062 2178.359375 C 2097.679688 2178.359375 2083.03125 2184.871094 2071.339844 2196.550781 C 2059.648438 2208.25 2053.460938 2222.890625 2053.140625 2240.5 C 2053.039062 2246.230469 2053.679688 2251.808594 2055.359375 2257.019531 C 2056.648438 2261.019531 2058.339844 2267.640625 2066.089844 2278.480469 C 2075.71875 2291.941406 2089.800781 2299.820312 2106.851562 2302.078125 C 2109.929688 2302.488281 2112.949219 2302.691406 2115.890625 2302.691406 C 2129.921875 2302.691406 2142.421875 2298.128906 2153.261719 2289.691406 C 2166.089844 2279.71875 2173.878906 2266.421875 2176.710938 2249.871094 L 2272.25 2249.871094 L 2272.210938 2249.878906 C 2272.839844 2251.808594 2273.910156 2254.671875 2276.929688 2258.890625 C 2281.46875 2265.25 2288.121094 2268.96875 2296.160156 2270.03125 C 2297.621094 2270.230469 2299.039062 2270.320312 2300.429688 2270.320312 C 2307.058594 2270.320312 2312.949219 2268.171875 2318.070312 2264.191406 C 2324.230469 2259.390625 2327.941406 2252.96875 2329.210938 2244.949219 C 2329.210938 2244.949219 2329.449219 2243.570312 2329.480469 2240.96875 C 2329.269531 2232.660156 2326.398438 2225.75 2320.890625 2220.230469 C 2315.371094 2214.710938 2308.460938 2211.640625 2300.140625 2211.640625 C 2291.828125 2211.640625 2284.921875 2214.710938 2279.410156 2220.230469 C 2275.660156 2223.980469 2273.109375 2228.371094 2271.808594 2233.398438 L 2176.96875 2233.390625 L 2176.929688 2233.398438 C 2175.210938 2218.921875 2169.308594 2206.640625 2159.230469 2196.558594 C 2147.539062 2184.871094 2132.890625 2178.359375 2115.289062 2178.359375 Z M 2115.289062 2178.359375 "/>
<path fill-rule="nonzero" fill="rgb(0%, 0%, 0%)" fill-opacity="1" d="M 1930.371094 1841.859375 C 1922.058594 1841.859375 1915.140625 1844.941406 1909.628906 1850.449219 C 1904.109375 1855.96875 1901.191406 1862.878906 1901.039062 1871.191406 C 1900.988281 1873.898438 1901.289062 1876.53125 1902.089844 1878.988281 C 1902.691406 1880.878906 1903.488281 1884 1907.148438 1889.121094 C 1911.691406 1895.46875 1918.339844 1899.191406 1926.390625 1900.261719 C 1927.839844 1900.449219 1929.269531 1900.550781 1930.648438 1900.550781 C 1937.28125 1900.550781 1943.179688 1898.390625 1948.289062 1894.410156 C 1953.179688 1890.609375 1956.519531 1885.78125 1958.328125 1879.949219 L 1958.359375 1879.949219 L 2111.820312 1879.960938 L 2274.230469 2042.359375 L 2274.191406 2042.359375 C 2272.050781 2046.410156 2270.910156 2050.980469 2270.820312 2056.078125 C 2270.769531 2058.789062 2271.070312 2061.421875 2271.859375 2063.878906 C 2272.46875 2065.769531 2273.269531 2068.890625 2276.929688 2074.011719 C 2281.46875 2080.359375 2288.121094 2084.078125 2296.160156 2085.148438 C 2297.621094 2085.339844 2299.039062 2085.429688 2300.429688 2085.429688 C 2307.058594 2085.429688 2312.949219 2083.28125 2318.070312 2079.300781 C 2324.230469 2074.511719 2327.941406 2068.078125 2329.210938 2060.058594 C 2329.210938 2060.058594 2329.449219 2058.679688 2329.480469 2056.078125 C 2329.269531 2047.769531 2326.398438 2040.859375 2320.890625 2035.339844 C 2315.371094 2029.820312 2308.460938 2026.75 2300.140625 2026.75 C 2294.621094 2026.75 2289.710938 2028.109375 2285.410156 2030.648438 L 2120.890625 1866.140625 C 2119.378906 1864.621094 2117.320312 1863.769531 2115.171875 1863.769531 L 1958.75 1863.761719 L 1958.710938 1863.761719 C 1957.421875 1858.671875 1954.890625 1854.230469 1951.109375 1850.449219 C 1945.589844 1844.941406 1938.679688 1841.859375 1930.371094 1841.859375 Z M 1930.371094 1841.859375 "/>
<path fill-rule="nonzero" fill="rgb(0%, 0%, 0%)" fill-opacity="1" d="M 1375.699219 1102.308594 C 1367.390625 1102.308594 1360.480469 1105.378906 1354.960938 1110.898438 C 1349.441406 1116.421875 1346.519531 1123.328125 1346.371094 1131.640625 C 1346.320312 1134.351562 1346.628906 1136.980469 1347.421875 1139.441406 C 1348.03125 1141.320312 1348.820312 1144.441406 1352.480469 1149.558594 C 1357.03125 1155.921875 1363.671875 1159.640625 1371.71875 1160.699219 C 1373.179688 1160.890625 1374.601562 1160.988281 1375.988281 1160.988281 C 1382.609375 1160.988281 1388.511719 1158.839844 1393.628906 1154.859375 C 1398.46875 1151.089844 1401.800781 1146.308594 1403.621094 1140.539062 L 1741.980469 1140.539062 L 1741.980469 1140.550781 L 1904.378906 1302.929688 L 1904.339844 1302.929688 C 1902.238281 1306.949219 1901.128906 1311.480469 1901.039062 1316.53125 C 1900.988281 1319.238281 1901.289062 1321.871094 1902.089844 1324.328125 C 1902.691406 1326.210938 1903.488281 1329.339844 1907.148438 1334.449219 C 1911.691406 1340.808594 1918.339844 1344.519531 1926.390625 1345.589844 C 1927.839844 1345.789062 1929.269531 1345.878906 1930.648438 1345.878906 C 1937.28125 1345.878906 1943.179688 1343.730469 1948.289062 1339.75 C 1954.460938 1334.949219 1958.160156 1328.53125 1959.429688 1320.511719 C 1959.429688 1320.511719 1959.679688 1319.128906 1959.699219 1316.53125 C 1959.488281 1308.21875 1956.628906 1301.308594 1951.109375 1295.789062 C 1945.589844 1290.269531 1938.679688 1287.199219 1930.371094 1287.199219 C 1924.890625 1287.199219 1920.019531 1288.53125 1915.761719 1291.019531 L 1751.21875 1126.480469 C 1749.671875 1124.941406 1747.570312 1124.070312 1745.390625 1124.070312 L 1404.039062 1124.058594 L 1404.011719 1124.058594 C 1402.710938 1119.03125 1400.191406 1114.640625 1396.441406 1110.898438 C 1390.921875 1105.378906 1384.011719 1102.308594 1375.699219 1102.308594 Z M 1375.699219 1102.308594 "/>
<path fill-rule="nonzero" fill="rgb(0%, 0%, 0%)" fill-opacity="1" d="M 1005.921875 1287.191406 C 997.609375 1287.191406 990.699219 1290.269531 985.183594 1295.789062 C 981.4375 1299.53125 978.886719 1303.921875 977.589844 1308.949219 L 849.34375 1308.949219 L 849.34375 1308.960938 C 848.042969 1303.921875 845.519531 1299.53125 841.773438 1295.789062 C 836.253906 1290.269531 829.34375 1287.191406 821.035156 1287.191406 C 812.722656 1287.191406 805.8125 1290.269531 800.292969 1295.789062 C 794.773438 1301.308594 791.855469 1308.210938 791.703125 1316.53125 C 791.652344 1319.230469 791.957031 1321.859375 792.75 1324.320312 C 793.359375 1326.210938 794.15625 1329.339844 797.8125 1334.449219 C 802.359375 1340.808594 809.003906 1344.519531 817.054688 1345.589844 C 818.507812 1345.789062 819.929688 1345.878906 821.320312 1345.878906 C 827.941406 1345.878906 833.839844 1343.730469 838.957031 1339.75 C 843.804688 1335.980469 847.132812 1331.199219 848.949219 1325.429688 L 848.925781 1325.429688 L 977.988281 1325.429688 C 978.613281 1327.359375 979.679688 1330.230469 982.703125 1334.449219 C 987.246094 1340.808594 993.894531 1344.519531 1001.941406 1345.589844 C 1003.398438 1345.789062 1004.820312 1345.878906 1006.210938 1345.878906 C 1012.828125 1345.878906 1018.730469 1343.730469 1023.851562 1339.75 C 1030.011719 1334.949219 1033.71875 1328.519531 1034.988281 1320.511719 C 1034.988281 1320.511719 1035.230469 1319.121094 1035.25 1316.53125 C 1035.039062 1308.21875 1032.179688 1301.308594 1026.660156 1295.789062 C 1021.140625 1290.269531 1014.230469 1287.191406 1005.921875 1287.191406 Z M 1005.921875 1287.191406 "/>
</svg>
