<?xml version="1.0" encoding="UTF-8"?>
<svg xmlns="http://www.w3.org/2000/svg" xmlns:xlink="http://www.w3.org/1999/xlink" width="2100" height="2100" viewBox="0 0 2100 2100">
<rect x="-210" y="-210" width="2520" height="2520" fill="rgb(100%, 100%, 100%)" fill-opacity="1"/>
<path fill-rule="nonzero" fill="rgb(0%, 0%, 0%)" fill-opacity="1" d="M 1228.730469 526.011719 C 1142.089844 526.011719 1106.601562 535.679688 1068.539062 570.910156 C 1088.640625 587.921875 1102.359375 609.058594 1114.820312 640.351562 C 1125.109375 666.191406 1127.160156 684.78125 1127 750.269531 C 1126.789062 846.941406 1110.558594 916.171875 1067.351562 1005.03125 C 1074.738281 1020.410156 1082.710938 1034.898438 1091.230469 1048.140625 C 1115.109375 1085.230469 1116.558594 1101.097656 1099.179688 1133.457031 C 1094.261719 1142.601562 1089.660156 1148.167969 1073.199219 1155.847656 C 1091.75 1165.933594 1119.710938 1176.574219 1165.269531 1192.148438 C 1273.070312 1229.011719 1354.410156 1268.902344 1387.671875 1301.230469 C 1430.5 1342.851562 1453.71875 1403.175781 1461.890625 1494.261719 L 1466.070312 1573.992188 L 1778.808594 1573.992188 L 1774.628906 1494.261719 C 1766.46875 1403.175781 1743.238281 1342.851562 1700.410156 1301.230469 C 1667.148438 1268.902344 1585.808594 1229.011719 1478.011719 1192.148438 C 1373.269531 1156.335938 1358.109375 1146.636719 1348.929688 1109.695312 C 1342.058594 1082.070312 1342.460938 1080.558594 1374.890625 1015.960938 C 1422.261719 921.621094 1439.519531 850.941406 1439.738281 750.269531 C 1439.898438 684.78125 1437.851562 666.191406 1427.558594 640.351562 C 1408.28125 591.941406 1386.261719 567.648438 1341.699219 545.710938 C 1303.191406 526.75 1298.730469 526.011719 1228.730469 526.011719 Z M 1228.730469 526.011719 "/>
<path fill-rule="nonzero" fill="rgb(0%, 0%, 0%)" fill-opacity="1" d="M 325.175781 1527.015625 C 332.472656 1440.949219 355.140625 1379.246094 395.582031 1335.371094 C 427.8125 1300.40625 502.347656 1263.292969 621.128906 1223.070312 C 724.332031 1188.121094 732.335938 1184.363281 742.074219 1166.234375 C 759.460938 1133.871094 757.976562 1117.96875 734.09375 1080.871094 C 664.53125 972.820312 630.871094 783.359375 662.847656 679.828125 C 672.675781 648 681.765625 632.710938 704.113281 610.359375 C 745.175781 569.300781 779.449219 558.730469 871.617188 558.730469 C 941.613281 558.730469 946.070312 559.519531 984.578125 578.46875 C 1029.140625 600.410156 1051.171875 624.691406 1070.441406 673.101562 C 1080.738281 698.941406 1082.800781 717.519531 1082.640625 783 C 1082.429688 883.671875 1065.128906 954.351562 1017.769531 1048.679688 C 985.332031 1113.28125 984.914062 1114.800781 991.78125 1142.417969 C 1000.96875 1179.363281 1016.160156 1189.066406 1120.898438 1224.878906 C 1228.710938 1261.742188 1310.039062 1301.636719 1343.308594 1333.96875 C 1386.128906 1375.589844 1409.320312 1435.933594 1417.480469 1527.015625 L 1421.691406 1573.992188 L 321.195312 1573.992188 Z M 325.175781 1527.015625 "/>
</svg>
